<mxfile host="app.diagrams.net" modified="2020-10-29T17:48:13.008Z" agent="5.0 (Macintosh)" etag="iU46u3i90Q2HGY8j0ZmA" version="13.8.3" type="github">
  <diagram id="vQ-w62hkwAySSpYDFAHU" name="Page-1">
    <mxGraphModel dx="1298" dy="820" grid="1" gridSize="10" guides="1" tooltips="1" connect="1" arrows="1" fold="1" page="1" pageScale="1" pageWidth="850" pageHeight="1100" background="#ffffff" math="0" shadow="0">
      <root>
        <mxCell id="0" />
        <mxCell id="1" parent="0" />
        <mxCell id="bRyLW_GCDOSwrc9xKG2h-5" value="" style="shape=mxgraph.rack.ibm.ibm_x3850_x5;html=1;labelPosition=right;align=left;spacingLeft=15;dashed=0;shadow=0;fillColor=#fff2cc;strokeColor=#d6b656;" parent="1" vertex="1">
          <mxGeometry x="210" y="240" width="161" height="60" as="geometry" />
        </mxCell>
        <mxCell id="hgK-21wNe7TbE93TmFXn-2" style="edgeStyle=orthogonalEdgeStyle;rounded=0;orthogonalLoop=1;jettySize=auto;html=1;fontColor=#FFFFFF;startArrow=block;startFill=1;" edge="1" parent="1" source="bRyLW_GCDOSwrc9xKG2h-6" target="bRyLW_GCDOSwrc9xKG2h-5">
          <mxGeometry relative="1" as="geometry">
            <mxPoint x="372" y="270" as="targetPoint" />
          </mxGeometry>
        </mxCell>
        <mxCell id="bRyLW_GCDOSwrc9xKG2h-6" value="" style="shape=mxgraph.rack.ibm.ibm_x3850_x5;html=1;labelPosition=right;align=left;spacingLeft=15;dashed=0;shadow=0;fillColor=#fff2cc;strokeColor=#d6b656;" parent="1" vertex="1">
          <mxGeometry x="460" y="240" width="161" height="60" as="geometry" />
        </mxCell>
        <mxCell id="bRyLW_GCDOSwrc9xKG2h-8" style="edgeStyle=orthogonalEdgeStyle;rounded=0;orthogonalLoop=1;jettySize=auto;html=1;entryX=0.46;entryY=1.033;entryDx=0;entryDy=0;entryPerimeter=0;" parent="1" source="bRyLW_GCDOSwrc9xKG2h-7" target="bRyLW_GCDOSwrc9xKG2h-5" edge="1">
          <mxGeometry relative="1" as="geometry">
            <mxPoint x="280" y="310" as="targetPoint" />
          </mxGeometry>
        </mxCell>
        <mxCell id="bRyLW_GCDOSwrc9xKG2h-9" style="edgeStyle=orthogonalEdgeStyle;rounded=0;orthogonalLoop=1;jettySize=auto;html=1;entryX=0.491;entryY=1.017;entryDx=0;entryDy=0;entryPerimeter=0;" parent="1" source="bRyLW_GCDOSwrc9xKG2h-7" target="bRyLW_GCDOSwrc9xKG2h-6" edge="1">
          <mxGeometry relative="1" as="geometry" />
        </mxCell>
        <mxCell id="bRyLW_GCDOSwrc9xKG2h-7" value="" style="fontColor=#ffffff;verticalAlign=top;verticalLabelPosition=bottom;labelPosition=center;align=center;html=1;outlineConnect=0;fillColor=#0050ef;strokeColor=#001DBC;gradientDirection=north;strokeWidth=2;shape=mxgraph.networks.storage;" parent="1" vertex="1">
          <mxGeometry x="370" y="370" width="90" height="70" as="geometry" />
        </mxCell>
        <mxCell id="bRyLW_GCDOSwrc9xKG2h-10" value="30TB" style="text;html=1;align=right;verticalAlign=top;resizable=0;points=[];autosize=1;fontColor=#FFFFFF;" parent="1" vertex="1">
          <mxGeometry x="385" y="370" width="40" height="20" as="geometry" />
        </mxCell>
        <mxCell id="hgK-21wNe7TbE93TmFXn-3" value="PowerHA" style="text;html=1;align=center;verticalAlign=middle;resizable=0;points=[];autosize=1;fontColor=#ffffff;fillColor=#a20025;strokeColor=#6F0000;" vertex="1" parent="1">
          <mxGeometry x="380" y="240" width="70" height="20" as="geometry" />
        </mxCell>
      </root>
    </mxGraphModel>
  </diagram>
</mxfile>
